<?xml version="1.0" encoding="UTF-8"?>
<svg xmlns="http://www.w3.org/2000/svg" version="1.1" viewBox="0 0 155.7 223">
  <!-- Generator: Adobe Illustrator 29.5.1, SVG Export Plug-In . SVG Version: 2.1.0 Build 141)  -->
  <defs>
    <style>
      .st0 {
        opacity: .7;
      }

      .st1 {
        opacity: .2;
      }

      .st2 {
        opacity: .3;
      }

      .st3 {
        fill: #fdfefe;
      }

      .st4 {
        fill: #acd4dc;
        stroke: #000;
        stroke-miterlimit: 10;
        stroke-width: 5px;
      }
    </style>
  </defs>
  <g id="Layer_2">
    <path class="st4" d="M77.7,2.5c-65.6,0-99.7,79.1-54.8,126.8,12,12.8,28.2,21.1,45.9,23.3.7.1.9.6.9,1.3,0,6.4.1,12.2.3,18.3,1,27.6,3.3,48.1,6.9,48.4.3,0,.8-.6.9-1.3.1-1.3,1.2-2.2,1.6-3.3,2.6-9.6,4.4-33.4,4.5-61.4,0-.9.1-1.7,1.1-1.8,25.8-2.4,48.9-18.4,60.3-41.5C170.3,62.3,132.9,1.8,77.9,2.5h-.2Z"/>
  </g>
  <g id="Layer_3">
    <path class="st1" d="M41.2,133.7c-5.2-7.1-9-13.7-11.7-22.1-.3-3.2,3.9-1.2,5.6-1,57.9,13.9,94.5-32.2,78.7-86.9,29.6,20.3,37.5,61.2,17.7,91-19.7,29.6-60.1,38.2-90.3,19.1Z"/>
    <path class="st2" d="M152.7,69.6c.5,4.2.9,10.2,0,17.2-.3,2.7-2.3,17.8-12.1,32.5-11.6,17.3-32.5,31.9-57.5,33.7-23.2,1.7-40.2-8.3-44.8-11-11-6.6-17.5-14.5-19.1-16.5-6.6-8.2-10.1-16.3-11.9-21.6.6.3,2.4,1.6,4.5,3.1,2.9,2.1,6.2,4.4,6.2,4.4,2.1,3,5.1,6.8,9.2,10.9,3,3.1,7.3,7.4,13.9,11.5,7.7,4.9,14.7,7,17.7,7.8,3.9,1.1,11.3,2.7,20.7,2.3,6.2-.3,16-1.6,26.5-6.9,7.8-3.9,13-8.4,15.5-10.7,11.2-10.4,15.7-22.1,17.5-27.3,1.2-3.7,3.5-11.7,3.3-22,0-4.7-.8-16.2-7.3-28.9-1.1-2.1-5-9.5-11.5-16.1-3.9-3.9-9.2-8.1-10.5-8.5-.2,0-.7-.2-1.1-.7,0,0-.2-.3-.7-1.4-1.2-1.9-2.3-4-3.5-6.2-1.5-2.8-2.7-5.5-3.8-8,3.7,1.4,8.5,3.5,13.7,6.9,3.3,2.1,11.4,7.7,19,17.4,5.1,6.6,13.7,19.8,16,38.3Z"/>
    <path class="st0" d="M83.9,152.9c0,2.2,0,5.3-.1,9-.1,6.2-.2,8.4-.4,16,0,0-.3,11.8-2.5,29.4,0,.5-.1.6-.1.6,0,0-.1-.7-.2-1.1-.4-1.9-.8-4.1-.7-6.1.6-13.6,2.4-27.1,1.8-40.7,0-.8-.4-1.5-1.3-1.5-1.8.1-3.2,1.6-4.9,1.4-.5,0-1,0-1.4,0-.7-.2-1.5-1-2.3-1.2-.8-.2-1.6.1-1.9-.2-.4-.7-.1-1.8-.2-2.7.2-1-.5-2.9.8-3,2,.2,4.1.4,6.4.4,2.6,0,5,0,7.1-.3Z"/>
    <path class="st3" d="M75.1,159.9c0,6.1,0,12.3,0,18.6,0,6.6.3,13.1.5,19.4,0,.1-.3.4-.8.6-.3,0-.6,0-.7,0-.5-6.2-1.1-13.3-1.4-20.7-.2-4.5-.3-8.6-.4-9.9,0-3.4-.2-6.4-.2-9,.5,0,1.2.2,2,.5.4.2.7.3,1,.5Z"/>
    <path class="st3" d="M111.1,21.5C62.1,16.9,8.8,65.6,32,117.9c2.3,5.4,5.3,10.1,8.8,15.3.3.6.1.5-.3.2-6.4-4.4-17.5-14.5-21.2-20.6C-13.9,52.4,51.5-13,111,21.4h0Z"/>
    <path class="st2" d="M77.6,220c0-1.4,1.1-2.8,1.8-3.9.8-3,1.5-6.4,1.2-9.4-.3-1.7-.8-4.2-.7-6.2.6-13.7,2.2-27.3,1.5-41.1-.4-2.3-3.6,0-4.6.4,0,1,.4,48,.7,60.3h0Z"/>
    <path d="M61.1,154.8"/>
  </g>
</svg>