<?xml version="1.0" encoding="utf-8"?><svg xmlns="http://www.w3.org/2000/svg" xmlns:xlink="http://www.w3.org/1999/xlink">
<symbol id="icon-image"  fill="currentColor" class="bi bi-image" viewBox="0 0 16 16">
  <path d="M6.002 5.5a1.5 1.5 0 1 1-3 0 1.5 1.5 0 0 1 3 0z"/>
  <path d="M2.002 1a2 2 0 0 0-2 2v10a2 2 0 0 0 2 2h12a2 2 0 0 0 2-2V3a2 2 0 0 0-2-2h-12zm12 1a1 1 0 0 1 1 1v6.5l-3.777-1.947a.5.5 0 0 0-.577.093l-3.71 3.71-2.66-1.772a.5.5 0 0 0-.63.062L1.002 12V3a1 1 0 0 1 1-1h12z"/>
</symbol>
<symbol id="icon-audio"  fill="currentColor" class="bi bi-soundwave" viewBox="0 0 16 16">
  <path fill-rule="evenodd" d="M8.5 2a.5.5 0 0 1 .5.5v11a.5.5 0 0 1-1 0v-11a.5.5 0 0 1 .5-.5zm-2 2a.5.5 0 0 1 .5.5v7a.5.5 0 0 1-1 0v-7a.5.5 0 0 1 .5-.5zm4 0a.5.5 0 0 1 .5.5v7a.5.5 0 0 1-1 0v-7a.5.5 0 0 1 .5-.5zm-6 1.5A.5.5 0 0 1 5 6v4a.5.5 0 0 1-1 0V6a.5.5 0 0 1 .5-.5zm8 0a.5.5 0 0 1 .5.5v4a.5.5 0 0 1-1 0V6a.5.5 0 0 1 .5-.5zm-10 1A.5.5 0 0 1 3 7v2a.5.5 0 0 1-1 0V7a.5.5 0 0 1 .5-.5zm12 0a.5.5 0 0 1 .5.5v2a.5.5 0 0 1-1 0V7a.5.5 0 0 1 .5-.5z"/>
</symbol>
<symbol id="icon-video"  fill="currentColor" class="bi bi-film" viewBox="0 0 16 16">
  <path d="M0 1a1 1 0 0 1 1-1h14a1 1 0 0 1 1 1v14a1 1 0 0 1-1 1H1a1 1 0 0 1-1-1V1zm4 0v6h8V1H4zm8 8H4v6h8V9zM1 1v2h2V1H1zm2 3H1v2h2V4zM1 7v2h2V7H1zm2 3H1v2h2v-2zm-2 3v2h2v-2H1zM15 1h-2v2h2V1zm-2 3v2h2V4h-2zm2 3h-2v2h2V7zm-2 3v2h2v-2h-2zm2 3h-2v2h2v-2z"/>
</symbol>
<symbol id="icon-pdf"  fill="currentColor" class="bi bi-file-pdf" viewBox="0 0 16 16">
  <path d="M4 0a2 2 0 0 0-2 2v12a2 2 0 0 0 2 2h8a2 2 0 0 0 2-2V2a2 2 0 0 0-2-2H4zm0 1h8a1 1 0 0 1 1 1v12a1 1 0 0 1-1 1H4a1 1 0 0 1-1-1V2a1 1 0 0 1 1-1z"/>
  <path d="M4.603 12.087a.81.81 0 0 1-.438-.42c-.195-.388-.13-.776.08-1.102.198-.307.526-.568.897-.787a7.68 7.68 0 0 1 1.482-.645 19.701 19.701 0 0 0 1.062-2.227 7.269 7.269 0 0 1-.43-1.295c-.086-.4-.119-.796-.046-1.136.075-.354.274-.672.65-.823.192-.077.4-.12.602-.077a.7.7 0 0 1 .477.365c.088.164.12.356.127.538.007.187-.012.395-.047.614-.084.51-.27 1.134-.52 1.794a10.954 10.954 0 0 0 .98 1.686 5.753 5.753 0 0 1 1.334.05c.364.065.734.195.96.465.12.144.193.32.2.518.007.192-.047.382-.138.563a1.04 1.04 0 0 1-.354.416.856.856 0 0 1-.51.138c-.331-.014-.654-.196-.933-.417a5.716 5.716 0 0 1-.911-.95 11.642 11.642 0 0 0-1.997.406 11.311 11.311 0 0 1-1.021 1.51c-.29.35-.608.655-.926.787a.793.793 0 0 1-.58.029zm1.379-1.901c-.166.076-.32.156-.459.238-.328.194-.541.383-.647.547-.094.145-.096.25-.04.361.01.022.02.036.026.044a.27.27 0 0 0 .035-.012c.137-.056.355-.235.635-.572a8.18 8.18 0 0 0 .45-.606zm1.64-1.33a12.647 12.647 0 0 1 1.01-.193 11.666 11.666 0 0 1-.51-.858 20.741 20.741 0 0 1-.5 1.05zm2.446.45c.15.162.296.3.435.41.24.19.407.253.498.256a.107.107 0 0 0 .07-.015.307.307 0 0 0 .094-.125.436.436 0 0 0 .059-.2.095.095 0 0 0-.026-.063c-.052-.062-.2-.152-.518-.209a3.881 3.881 0 0 0-.612-.053zM8.078 5.8a6.7 6.7 0 0 0 .2-.828c.031-.188.043-.343.038-.465a.613.613 0 0 0-.032-.198.517.517 0 0 0-.145.04c-.087.035-.158.106-.196.283-.04.192-.03.469.046.822.024.111.054.227.09.346z"/>
</symbol>
<symbol id="icon-record"  fill="currentColor" class="bi bi-file-text" viewBox="0 0 16 16">
  <path d="M5 4a.5.5 0 0 0 0 1h6a.5.5 0 0 0 0-1H5zm-.5 2.5A.5.5 0 0 1 5 6h6a.5.5 0 0 1 0 1H5a.5.5 0 0 1-.5-.5zM5 8a.5.5 0 0 0 0 1h6a.5.5 0 0 0 0-1H5zm0 2a.5.5 0 0 0 0 1h3a.5.5 0 0 0 0-1H5z"/>
  <path d="M2 2a2 2 0 0 1 2-2h8a2 2 0 0 1 2 2v12a2 2 0 0 1-2 2H4a2 2 0 0 1-2-2V2zm10-1H4a1 1 0 0 0-1 1v12a1 1 0 0 0 1 1h8a1 1 0 0 0 1-1V2a1 1 0 0 0-1-1z"/>
</symbol>
<symbol id="icon-compound-object"  fill="currentColor" class="bi bi-collection" viewBox="0 0 16 16">
  <path d="M2.5 3.5a.5.5 0 0 1 0-1h11a.5.5 0 0 1 0 1h-11zm2-2a.5.5 0 0 1 0-1h7a.5.5 0 0 1 0 1h-7zM0 13a1.5 1.5 0 0 0 1.5 1.5h13A1.5 1.5 0 0 0 16 13V6a1.5 1.5 0 0 0-1.5-1.5h-13A1.5 1.5 0 0 0 0 6v7zm1.5.5A.5.5 0 0 1 1 13V6a.5.5 0 0 1 .5-.5h13a.5.5 0 0 1 .5.5v7a.5.5 0 0 1-.5.5h-13z"/>
</symbol>
<symbol id="icon-multiple"  fill="currentColor" class="bi bi-postcard" viewBox="0 0 16 16">
  <path fill-rule="evenodd" d="M2 2a2 2 0 0 0-2 2v8a2 2 0 0 0 2 2h12a2 2 0 0 0 2-2V4a2 2 0 0 0-2-2H2ZM1 4a1 1 0 0 1 1-1h12a1 1 0 0 1 1 1v8a1 1 0 0 1-1 1H2a1 1 0 0 1-1-1V4Zm7.5.5a.5.5 0 0 0-1 0v7a.5.5 0 0 0 1 0v-7ZM2 5.5a.5.5 0 0 1 .5-.5H6a.5.5 0 0 1 0 1H2.5a.5.5 0 0 1-.5-.5Zm0 2a.5.5 0 0 1 .5-.5H6a.5.5 0 0 1 0 1H2.5a.5.5 0 0 1-.5-.5Zm0 2a.5.5 0 0 1 .5-.5H6a.5.5 0 0 1 0 1H2.5a.5.5 0 0 1-.5-.5ZM10.5 5a.5.5 0 0 0-.5.5v3a.5.5 0 0 0 .5.5h3a.5.5 0 0 0 .5-.5v-3a.5.5 0 0 0-.5-.5h-3ZM13 8h-2V6h2v2Z"/>
</symbol>
<symbol id="icon-default"  fill="currentColor" class="bi bi-file-earmark" viewBox="0 0 16 16">
  <path d="M14 4.5V14a2 2 0 0 1-2 2H4a2 2 0 0 1-2-2V2a2 2 0 0 1 2-2h5.5L14 4.5zm-3 0A1.5 1.5 0 0 1 9.5 3V1H4a1 1 0 0 0-1 1v12a1 1 0 0 0 1 1h8a1 1 0 0 0 1-1V4.5h-2z"/>
</symbol>
<symbol id="icon-back-to-top"  fill="currentColor" class="bi bi-arrow-up-square" viewBox="0 0 16 16">
  <path fill-rule="evenodd" d="M15 2a1 1 0 0 0-1-1H2a1 1 0 0 0-1 1v12a1 1 0 0 0 1 1h12a1 1 0 0 0 1-1V2zM0 2a2 2 0 0 1 2-2h12a2 2 0 0 1 2 2v12a2 2 0 0 1-2 2H2a2 2 0 0 1-2-2V2zm8.5 9.5a.5.5 0 0 1-1 0V5.707L5.354 7.854a.5.5 0 1 1-.708-.708l3-3a.5.5 0 0 1 .708 0l3 3a.5.5 0 0 1-.708.708L8.5 5.707V11.5z"/>
</symbol>
<symbol id="arrow-left"  fill="currentColor" class="bi bi-arrow-left" viewBox="0 0 16 16">
  <path fill-rule="evenodd" d="M15 8a.5.5 0 0 0-.5-.5H2.707l3.147-3.146a.5.5 0 1 0-.708-.708l-4 4a.5.5 0 0 0 0 .708l4 4a.5.5 0 0 0 .708-.708L2.707 8.5H14.5A.5.5 0 0 0 15 8z"/>
</symbol>
<symbol id="arrow-right"  fill="currentColor" class="bi bi-arrow-right" viewBox="0 0 16 16">
  <path fill-rule="evenodd" d="M1 8a.5.5 0 0 1 .5-.5h11.793l-3.147-3.146a.5.5 0 0 1 .708-.708l4 4a.5.5 0 0 1 0 .708l-4 4a.5.5 0 0 1-.708-.708L13.293 8.5H1.5A.5.5 0 0 1 1 8z"/>
</symbol>
<symbol id="arrow-down"  fill="currentColor" class="bi bi-arrow-down" viewBox="0 0 16 16">
  <path fill-rule="evenodd" d="M8 1a.5.5 0 0 1 .5.5v11.793l3.146-3.147a.5.5 0 0 1 .708.708l-4 4a.5.5 0 0 1-.708 0l-4-4a.5.5 0 0 1 .708-.708L7.5 13.293V1.5A.5.5 0 0 1 8 1z"/>
</symbol></svg>
